<?xml version="1.0" encoding="utf-8"?>
<!-- Generator: Adobe Illustrator 25.2.1, SVG Export Plug-In . SVG Version: 6.00 Build 0)  -->
<svg version="1.1" id="Layer_1" xmlns="http://www.w3.org/2000/svg" xmlns:xlink="http://www.w3.org/1999/xlink" x="0px" y="0px"
	 viewBox="0 0 250.3 98.6" style="enable-background:new 0 0 250.3 98.6;" xml:space="preserve">
<style type="text/css">
	.st0{fill:#CB2028;}
	.st1{fill:#8E9092;}
	.st2{fill:#27235D;}
</style>
<g>
	<rect y="85.8" class="st0" width="1.9" height="12.6"/>
	<g>
		<path class="st0" d="M3.5,96.6l1.1-1.4C5.7,96.3,7.1,97,8.8,97s2.6-0.9,2.6-1.9c0-1.2-1-1.7-3.2-2.1C5.7,92.3,4,91.5,4,89.3
			c0-2.1,1.8-3.7,4.4-3.7c1.9,0,3.4,0.7,4.6,1.8l-1.1,1.4c-1.1-1-2.3-1.5-3.6-1.5c-1.4,0-2.4,0.9-2.4,1.9c0,1.2,1.1,1.6,3.2,2.1
			c2.5,0.6,4.3,1.4,4.3,3.7c0,2.1-1.6,3.7-4.6,3.7C6.6,98.6,4.8,97.9,3.5,96.6"/>
	</g>
	<polyline class="st0" points="18.2,87.5 14.1,87.5 14.1,85.8 24.2,85.8 24.2,87.5 20.1,87.5 20.1,98.4 18.2,98.4 18.2,87.5 	"/>
	<g>
		<path class="st0" d="M36.4,96l1.3,1.2l-1.1,1.2l-1.4-1.2c-1.1,0.9-2.5,1.5-4,1.5c-3.5,0-6.6-3-6.6-6.5s3-6.5,6.6-6.5
			s6.5,3,6.5,6.5C37.7,93.5,37.2,94.9,36.4,96 M33.9,96l-1.8-1.6l1.1-1.2l1.9,1.6c0.5-0.8,0.8-1.7,0.8-2.7c0-2.6-2.1-4.8-4.6-4.8
			s-4.6,2.2-4.6,4.8c0,2.6,2.1,4.8,4.6,4.8C32.2,96.9,33.2,96.6,33.9,96z"/>
	</g>
	<path class="st0" d="M39.8,85.8h6c2.1,0,3.6,1.3,3.6,3.1c0,1.3-0.7,2.2-1.8,2.8c1.5,0.7,2.3,1.9,2.3,3.3c0,2-1.6,3.4-3.9,3.4h-6.2
		L39.8,85.8 M45.3,91.1c1.3,0,2.2-0.8,2.2-1.8s-0.9-1.8-2.2-1.8h-3.7V91C41.6,91,45.3,91,45.3,91.1z M45.6,96.8
		c1.4,0,2.4-0.9,2.4-2.1s-1-2.1-2.4-2.1h-3.9v4.2C41.6,96.8,45.6,96.8,45.6,96.8z"/>
	<g>
		<path class="st0" d="M56,92.1c0-3.5,3-6.5,6.6-6.5c1.8,0,3.5,0.8,4.6,2l-1.3,1.2c-0.8-0.9-2-1.5-3.3-1.5c-2.5,0-4.6,2.2-4.6,4.8
			c0,2.6,2.1,4.8,4.6,4.8c1.3,0,2.5-0.6,3.3-1.5l1.3,1.2c-1.2,1.2-2.8,2-4.6,2C59.1,98.6,56,95.6,56,92.1"/>
		<path class="st0" d="M75.7,96l1.1,1.2c-0.8,0.9-2.5,1.5-3.8,1.5c-2.6,0-4.9-2.1-4.9-5c0-2.8,2.1-4.9,4.7-4.9
			c2.9,0,4.6,2.2,4.6,5.6h-7.5c0.2,1.6,1.4,2.7,3,2.7C74,97,75.1,96.6,75.7,96 M69.9,92.8h5.7c-0.2-1.5-1.1-2.5-2.7-2.5
			C71.4,90.3,70.2,91.3,69.9,92.8z"/>
	</g>
	<path class="st0" d="M84.1,88.7v1.6c-2,0-3.4,1.1-3.5,2.7v5.4h-1.8v-9.5h1.8v1.8C81.2,89.5,82.5,88.7,84.1,88.7"/>
	<g>
		<path class="st0" d="M90.6,98c-0.5,0.4-1.2,0.7-1.9,0.7c-1.5,0-2.5-1.1-2.5-2.6v-5.6h-1.4V89h1.4v-2.6H88V89h2.2v1.5H88V96
			c0,0.7,0.4,1.1,1,1.1c0.4,0,0.8-0.1,1-0.3L90.6,98"/>
	</g>
	<path class="st0" d="M91.8,86.2c0-0.6,0.5-1.1,1.1-1.1s1.1,0.5,1.1,1.1s-0.5,1.1-1.1,1.1C92.2,87.3,91.8,86.8,91.8,86.2 M91.9,88.9
		h1.8v9.5h-1.8V88.9z"/>
	<path class="st0" d="M98.4,88.9h2.2v1.5h-2.2v8h-1.8v-8h-1.4v-1.5h1.4v-1.1c0-1.5,1-2.6,2.5-2.6c0.7,0,1.4,0.3,1.9,0.7l-0.7,1.2
		c-0.2-0.2-0.6-0.3-1-0.3c-0.5,0-1,0.5-1,1.1L98.4,88.9"/>
	<path class="st0" d="M101.9,86.2c0-0.6,0.5-1.1,1.1-1.1s1.1,0.5,1.1,1.1s-0.5,1.1-1.1,1.1C102.3,87.3,101.9,86.8,101.9,86.2
		 M102.1,88.9h1.8v9.5h-1.8V88.9z"/>
	<g>
		<path class="st0" d="M105.5,93.7c0-2.7,2.3-5,5-5c1.4,0,2.6,0.6,3.5,1.5l-1.2,1.1c-0.6-0.6-1.4-1-2.3-1c-1.7,0-3.2,1.5-3.2,3.4
			s1.4,3.4,3.2,3.4c0.9,0,1.7-0.4,2.3-1.1l1.2,1.1c-0.9,0.9-2.1,1.5-3.6,1.5C107.8,98.6,105.5,96.4,105.5,93.7"/>
		<path class="st0" d="M123.5,92.7v5.7h-1.8v-1.3c-0.7,1-2,1.5-3.2,1.5c-2,0-3.5-1.2-3.5-3c0-1.9,1.7-3.2,3.8-3.2
			c0.9,0,1.9,0.2,2.9,0.5v-0.3c0-1.2-0.6-2.5-2.4-2.5c-0.9,0-1.9,0.4-2.7,0.8l-0.7-1.3c1.4-0.7,2.6-1,3.6-1
			C122.1,88.7,123.5,90.3,123.5,92.7 M121.7,95.4v-1.3c-0.8-0.2-1.7-0.4-2.6-0.4c-1.3,0-2.3,0.7-2.3,1.7s0.9,1.7,2.1,1.7
			C120.1,97.2,121.4,96.6,121.7,95.4z"/>
		<path class="st0" d="M130.8,98c-0.5,0.4-1.2,0.7-1.9,0.7c-1.5,0-2.5-1.1-2.5-2.6v-5.6H125V89h1.4v-2.6h1.8V89h2.2v1.5h-2.2V96
			c0,0.7,0.4,1.1,1,1.1c0.4,0,0.8-0.1,1-0.3L130.8,98"/>
	</g>
	<path class="st0" d="M132,86.2c0-0.6,0.5-1.1,1.1-1.1s1.1,0.5,1.1,1.1s-0.5,1.1-1.1,1.1C132.5,87.3,132,86.8,132,86.2 M132.2,88.9
		h1.8v9.5h-1.8V88.9z"/>
	<g>
		<path class="st0" d="M135.6,93.7c0-2.7,2.3-5,5-5s5,2.3,5,5s-2.3,5-5,5C137.9,98.6,135.6,96.4,135.6,93.7 M143.8,93.7
			c0-1.8-1.5-3.4-3.2-3.4s-3.2,1.5-3.2,3.4s1.4,3.4,3.2,3.4C142.4,97.1,143.8,95.5,143.8,93.7z"/>
	</g>
	<path class="st0" d="M155.3,92.4v6h-1.8v-5.7c0-1.4-0.9-2.4-2.2-2.4s-2.5,0.9-2.6,2v6.2h-1.8V89h1.8v1.4c0.6-0.9,1.7-1.6,3-1.6
		C153.9,88.7,155.3,90.2,155.3,92.4"/>
	<path class="st0" d="M162.1,86.2c0-0.6,0.5-1.1,1.1-1.1s1.1,0.5,1.1,1.1s-0.5,1.1-1.1,1.1C162.6,87.3,162.1,86.8,162.1,86.2
		 M162.3,88.9h1.8v9.5h-1.8V88.9z"/>
	<path class="st0" d="M174.6,92.4v6h-1.8v-5.7c0-1.4-0.9-2.4-2.2-2.4s-2.5,0.9-2.6,2v6.2h-1.8V89h1.8v1.4c0.6-0.9,1.7-1.6,3-1.6
		C173.2,88.7,174.6,90.2,174.6,92.4"/>
	<g>
		<path class="st0" d="M186.7,98c-0.5,0.4-1.2,0.7-1.9,0.7c-1.5,0-2.5-1.1-2.5-2.6v-5.6h-1.4V89h1.4v-2.6h1.8V89h2.2v1.5h-2.2V96
			c0,0.7,0.4,1.1,1,1.1c0.4,0,0.8-0.1,1-0.3L186.7,98"/>
	</g>
	<path class="st0" d="M196.5,92.4v6h-1.8v-5.7c0-1.4-0.9-2.4-2.2-2.4c-1.4,0-2.6,1-2.6,2.2v5.9h-1.8V85.6h1.8v4.8
		c0.6-1,1.7-1.6,3-1.6C195,88.7,196.5,90.2,196.5,92.4"/>
	<g>
		<path class="st0" d="M205.7,96l1.1,1.2c-0.8,0.9-2.5,1.5-3.8,1.5c-2.6,0-4.9-2.1-4.9-5c0-2.8,2.1-4.9,4.7-4.9
			c2.9,0,4.6,2.2,4.6,5.6H200c0.2,1.6,1.4,2.7,3,2.7C204,97,205.1,96.6,205.7,96 M200,92.8h5.7c-0.2-1.5-1.1-2.5-2.7-2.5
			C201.5,90.3,200.3,91.3,200,92.8z"/>
		<path class="st0" d="M214,93.1v-7.3h1.9v7.3c0,2.3,1.5,3.9,3.6,3.9s3.5-1.6,3.5-3.9v-7.3h1.9v7.3c0,3.2-2.3,5.5-5.4,5.5
			C216.3,98.6,214,96.3,214,93.1"/>
		<path class="st0" d="M225.3,97.4c0-0.6,0.5-1.2,1.2-1.2s1.2,0.6,1.2,1.2c0,0.7-0.5,1.2-1.2,1.2S225.3,98.1,225.3,97.4"/>
		<path class="st0" d="M229.1,96.6l1.1-1.4c1.1,1.1,2.4,1.8,4.2,1.8c1.7,0,2.6-0.9,2.6-1.9c0-1.2-1-1.7-3.2-2.1
			c-2.6-0.6-4.3-1.4-4.3-3.7c0-2.1,1.8-3.7,4.4-3.7c1.9,0,3.4,0.7,4.6,1.8l-1.1,1.4c-1.1-1-2.3-1.5-3.6-1.5c-1.4,0-2.4,0.9-2.4,1.9
			c0,1.2,1.1,1.6,3.2,2.1c2.5,0.6,4.3,1.4,4.3,3.7c0,2.1-1.6,3.7-4.6,3.7C232.2,98.6,230.5,97.9,229.1,96.6"/>
		<path class="st0" d="M239.9,97.4c0-0.6,0.5-1.2,1.2-1.2s1.2,0.6,1.2,1.2c0,0.7-0.5,1.2-1.2,1.2S239.9,98.1,239.9,97.4"/>
	</g>
	<path class="st1" d="M4.4,72.9H1.6l-0.4,1H0l2.4-5.8h1.2L6,74H4.9L4.4,72.9 M4,72l-1-2.4L2,72H4z"/>
	<polyline class="st1" points="6.9,68.2 7.9,68.2 9.8,71.7 11.8,68.2 12.8,68.2 12.8,74 11.8,74 11.8,70.1 9.8,73.7 7.9,70.1 
		7.9,74 6.9,74 6.9,68.2 	"/>
	<polyline class="st1" points="15.1,69.2 15.1,70.6 18.1,70.6 18.1,71.5 15.1,71.5 15.1,73 18.5,73 18.5,74 14.1,74 14.1,68.2 
		18.5,68.2 18.5,69.2 15.1,69.2 	"/>
	<path class="st1" d="M23,74l-1.4-2h-1.1v2h-1.1v-5.8H22c1.2,0,2.2,0.8,2.2,1.9c0,0.9-0.6,1.6-1.4,1.8l1.5,2.1H23 M20.5,71.1h1.4
		c0.7,0,1.2-0.4,1.2-1s-0.5-1-1.2-1h-1.4V71.1z"/>
	<rect x="25.1" y="68.2" class="st1" width="1" height="5.8"/>
	<path class="st1" d="M27.2,71.1c0-1.6,1.4-3,3-3c0.9,0,1.6,0.4,2.2,0.9l-0.8,0.7c-0.4-0.4-0.9-0.7-1.4-0.7c-1.1,0-2,0.9-2,2
		s0.9,2,2,2c0.6,0,1.1-0.3,1.4-0.7l0.7,0.7c-0.6,0.6-1.3,0.9-2.2,0.9C28.6,74.1,27.2,72.7,27.2,71.1"/>
	<path class="st1" d="M37.2,72.9h-2.8L34,74h-1.2l2.4-5.8h1.2l2.4,5.8h-1.2L37.2,72.9 M36.8,72l-1-2.4l-1,2.4H36.8z"/>
	<polyline class="st1" points="39.7,68.2 40.7,68.2 43.8,72.3 43.8,68.2 44.8,68.2 44.8,74 43.8,74 40.7,69.9 40.7,74 39.7,74 
		39.7,68.2 	"/>
	<path class="st1" d="M48.2,73.1l0.6-0.8c0.5,0.5,1.1,0.8,1.9,0.8c0.7,0,1.1-0.4,1.1-0.8c0-0.5-0.4-0.6-1.3-0.9
		c-1.2-0.3-2-0.6-2-1.7c0-1,0.9-1.8,2.1-1.8c0.9,0,1.6,0.3,2.2,0.8l-0.6,0.8C51.6,69.2,51,69,50.4,69s-1,0.4-1,0.8
		c0,0.5,0.4,0.6,1.4,0.9c1.2,0.3,2,0.7,2,1.7s-0.8,1.8-2.2,1.8C49.7,74.1,48.8,73.7,48.2,73.1"/>
	<path class="st1" d="M53.6,71.1c0-1.6,1.4-3,3-3s3,1.4,3,3s-1.4,3-3,3S53.6,72.7,53.6,71.1 M58.6,71.1c0-1.1-0.9-2-2-2s-2,0.9-2,2
		s0.9,2,2,2C57.7,73.1,58.6,72.2,58.6,71.1z"/>
	<polyline class="st1" points="61.7,69.2 61.7,70.6 64.7,70.6 64.7,71.6 61.7,71.6 61.7,74 60.6,74 60.6,68.2 65,68.2 65,69.2 
		61.7,69.2 	"/>
	<polyline class="st1" points="67.5,69.2 65.6,69.2 65.6,68.2 70.4,68.2 70.4,69.2 68.5,69.2 68.5,74 67.5,74 67.5,69.2 	"/>
	<polyline class="st1" points="70.9,68.2 72.1,68.2 73.3,72.3 74.7,68.2 75.8,68.2 77.2,72.3 78.4,68.2 79.6,68.2 77.8,74 76.7,74 
		75.3,69.7 73.8,74 72.8,74 70.9,68.2 	"/>
	<path class="st1" d="M83.5,72.9h-2.8l-0.4,1h-1.2l2.4-5.8h1.2l2.4,5.8H84L83.5,72.9 M83.2,72l-1-2.4l-1,2.4H83.2z"/>
	<path class="st1" d="M89.5,74l-1.4-2H87v2h-1.1v-5.8h2.5c1.2,0,2.2,0.8,2.2,1.9c0,0.9-0.6,1.6-1.4,1.8l1.5,2.1H89.5 M87,71.1h1.4
		c0.7,0,1.2-0.4,1.2-1s-0.5-1-1.2-1H87V71.1z"/>
	<polyline class="st1" points="92.6,69.2 92.6,70.6 95.6,70.6 95.6,71.5 92.6,71.5 92.6,73 95.9,73 95.9,74 91.6,74 91.6,68.2 
		95.9,68.2 95.9,69.2 92.6,69.2 	"/>
	<polyline class="st1" points="100.9,69.2 99.1,69.2 99.1,68.2 103.8,68.2 103.8,69.2 102,69.2 102,74 100.9,74 100.9,69.2 	"/>
	<polyline class="st1" points="105.8,69.2 105.8,70.6 108.8,70.6 108.8,71.5 105.8,71.5 105.8,73 109.1,73 109.1,74 104.7,74 
		104.7,68.2 109.1,68.2 109.1,69.2 105.8,69.2 	"/>
	<path class="st1" d="M109.8,73.1l0.6-0.8c0.5,0.5,1.1,0.8,1.9,0.8c0.7,0,1.1-0.4,1.1-0.8c0-0.5-0.4-0.6-1.3-0.9
		c-1.2-0.3-2-0.6-2-1.7c0-1,0.9-1.8,2.1-1.8c0.9,0,1.6,0.3,2.2,0.8l-0.6,0.8c-0.5-0.4-1.1-0.7-1.7-0.7s-1,0.4-1,0.8
		c0,0.5,0.4,0.6,1.4,0.9c1.2,0.3,2,0.7,2,1.7s-0.8,1.8-2.2,1.8C111.3,74.1,110.4,73.7,109.8,73.1"/>
	<polyline class="st1" points="117,69.2 115.1,69.2 115.1,68.2 119.9,68.2 119.9,69.2 118,69.2 118,74 117,74 117,69.2 	"/>
	<rect x="120.8" y="68.2" class="st1" width="1" height="5.8"/>
	<polyline class="st1" points="123.1,68.2 124.2,68.2 127.2,72.3 127.2,68.2 128.3,68.2 128.3,74 127.2,74 124.2,69.9 124.2,74 
		123.1,74 123.1,68.2 	"/>
	<path class="st1" d="M132.3,70.8h2.5v2.3c-0.6,0.6-1.5,0.9-2.3,0.9c-1.7,0-3.1-1.4-3.1-3s1.4-3,3.1-3c0.8,0,1.7,0.4,2.3,0.9
		l-0.8,0.7c-0.4-0.4-1-0.7-1.6-0.7c-1.1,0-2,0.9-2,2s0.9,2,2,2c0.4,0,0.9-0.2,1.3-0.4v-1.1h-1.4V70.8"/>
	<path class="st1" d="M143.5,72.8l0.6,0.5l-0.6,0.7l-0.6-0.5c-0.5,0.4-1.2,0.6-1.8,0.6c-1.7,0-3-1.4-3-3s1.4-3,3-3s3,1.4,3,3
		C144.1,71.7,143.9,72.3,143.5,72.8 M142.2,72.8l-0.8-0.7l0.6-0.7l0.8,0.7c0.2-0.3,0.3-0.7,0.3-1.1c0-1.1-0.9-2-2-2s-2,0.9-2,2
		s0.9,2,2,2C141.5,73.1,141.8,73,142.2,72.8z"/>
	<path class="st1" d="M145.1,71.5v-3.3h1.1v3.3c0,1,0.6,1.7,1.5,1.7s1.5-0.7,1.5-1.7v-3.3h1v3.3c0,1.5-1.1,2.6-2.6,2.6
		C146.2,74.1,145.1,73,145.1,71.5"/>
	<path class="st1" d="M155.1,72.9h-2.8l-0.4,1h-1.2l2.4-5.8h1.2l2.4,5.8h-1.2L155.1,72.9 M154.7,72l-1-2.4l-1,2.4H154.7z"/>
	<polyline class="st1" points="161.4,73 161.4,74 157.4,74 157.4,68.2 158.5,68.2 158.5,73 161.4,73 	"/>
	<rect x="162.3" y="68.2" class="st1" width="1" height="5.8"/>
	<polyline class="st1" points="165.6,69.2 165.6,70.6 168.6,70.6 168.6,71.6 165.6,71.6 165.6,74 164.6,74 164.6,68.2 168.9,68.2 
		168.9,69.2 165.6,69.2 	"/>
	<rect x="169.9" y="68.2" class="st1" width="1" height="5.8"/>
	<path class="st1" d="M171.9,71.1c0-1.6,1.4-3,3-3c0.9,0,1.6,0.4,2.2,0.9l-0.8,0.7c-0.4-0.4-0.9-0.7-1.4-0.7c-1.1,0-2,0.9-2,2
		s0.9,2,2,2c0.6,0,1.1-0.3,1.4-0.7L177,73c-0.6,0.6-1.3,0.9-2.2,0.9C173.3,74.1,171.9,72.7,171.9,71.1"/>
	<path class="st1" d="M182,72.9h-2.8l-0.4,1h-1.2l2.4-5.8h1.2l2.4,5.8h-1.2L182,72.9 M181.6,72l-1-2.4l-1,2.4H181.6z"/>
	<polyline class="st1" points="185.4,69.2 183.5,69.2 183.5,68.2 188.3,68.2 188.3,69.2 186.4,69.2 186.4,74 185.4,74 185.4,69.2 	
		"/>
	<rect x="189.2" y="68.2" class="st1" width="1" height="5.8"/>
	<path class="st1" d="M191.2,71.1c0-1.6,1.4-3,3-3s3,1.4,3,3s-1.4,3-3,3C192.6,74.1,191.2,72.7,191.2,71.1 M196.2,71.1
		c0-1.1-0.9-2-2-2s-2,0.9-2,2s0.9,2,2,2S196.2,72.2,196.2,71.1z"/>
	<polyline class="st1" points="198.4,68.2 199.4,68.2 202.5,72.3 202.5,68.2 203.5,68.2 203.5,74 202.5,74 199.4,69.9 199.4,74 
		198.4,74 198.4,68.2 	"/>
	<path class="st1" d="M204.5,73.1l0.6-0.8c0.5,0.5,1.1,0.8,1.9,0.8c0.7,0,1.1-0.4,1.1-0.8c0-0.5-0.4-0.6-1.3-0.9
		c-1.2-0.3-2-0.6-2-1.7c0-1,0.9-1.8,2.1-1.8c0.9,0,1.6,0.3,2.2,0.8l-0.6,0.8c-0.5-0.4-1.1-0.7-1.7-0.7c-0.6,0-1,0.4-1,0.8
		c0,0.5,0.4,0.6,1.4,0.9c1.2,0.3,2,0.7,2,1.7S208.4,74,207,74C206,74.1,205.1,73.7,204.5,73.1"/>
	<path class="st1" d="M212.6,68.2h2.8c1,0,1.7,0.6,1.7,1.5c0,0.6-0.3,1-0.8,1.3c0.7,0.3,1.1,0.9,1.1,1.5c0,0.9-0.8,1.6-1.9,1.6h-3
		L212.6,68.2 M215.2,70.6c0.5,0,0.9-0.3,0.9-0.7c0-0.4-0.4-0.7-0.9-0.7h-1.5v1.5h1.5V70.6z M215.3,73.1c0.6,0,1-0.3,1-0.8
		s-0.4-0.8-1-0.8h-1.7v1.7C213.6,73.1,215.3,73.1,215.3,73.1z"/>
	<path class="st1" d="M218.1,71.1c0-1.6,1.4-3,3-3s3,1.4,3,3s-1.4,3-3,3S218.1,72.7,218.1,71.1 M223.1,71.1c0-1.1-0.9-2-2-2
		s-2,0.9-2,2s0.9,2,2,2C222.3,73.1,223.1,72.2,223.1,71.1z"/>
	<path class="st1" d="M228.8,72.9H226l-0.4,1h-1.2l2.4-5.8h1.2l2.4,5.8h-1.2L228.8,72.9 M228.5,72l-1-2.4l-1,2.4H228.5z"/>
	<path class="st1" d="M234.8,74l-1.4-2h-1.1v2h-1.1v-5.8h2.5c1.2,0,2.2,0.8,2.2,1.9c0,0.9-0.6,1.6-1.4,1.8L236,74H234.8 M232.3,71.1
		h1.4c0.7,0,1.2-0.4,1.2-1s-0.5-1-1.2-1h-1.4V71.1z"/>
	<path class="st1" d="M236.9,68.2h2c1.9,0,3.3,1.2,3.3,2.9S240.9,74,239,74h-2v-5.8 M239.1,73c1.2,0,2.1-0.8,2.1-2
		c0-1.1-0.9-1.9-2.1-1.9H238V73H239.1L239.1,73z"/>
	<path class="st2" d="M55.4,48.1l3.2-4c4.8,4.8,11,8,18.6,8c8.7,0,13.7-4.8,13.7-10.4c0-6-5-8.7-15.4-11.1c-11.6-2.7-18-6.3-18-14.9
		c0-9,7.7-15.7,18.2-15.7c7.7,0,14,3.1,19.2,7.8l-3.2,4c-4.6-4.5-10.3-7.1-16.2-7.1c-7.4,0-12.7,4.7-12.7,10.5
		c0,5.5,5.2,7.9,15.3,10.4c11.3,2.6,18.1,6.6,18.1,15.6c0,8.8-6.9,15.6-19.1,15.6C68.3,56.8,60.9,53.5,55.4,48.1"/>
	<polyline class="st2" points="117.4,5.9 98.4,5.9 98.4,1 141.5,1 141.5,5.9 122.5,5.9 122.5,55.9 117.4,55.9 117.4,5.9 	"/>
	<path class="st2" d="M200.6,1H225c8.9,0,15.1,5.7,15.1,13.7c0,5.8-3,9.8-7.8,12.2c6.1,2.8,10,8,10,14c0,8.8-6.8,15-16.3,15h-25.4V1
		 M224.2,24.8c6.3,0,10.7-4,10.7-9.6c0-5.5-4.6-9.5-11-9.5h-18.2v19.1H224.2z M224.8,51.2c7.2,0,12.2-4.6,12.2-10.9
		s-5-10.8-12.2-10.8h-19.2v21.7C205.6,51.2,224.8,51.2,224.8,51.2z"/>
	<path class="st0" d="M20.2,43c-1.4,0-2.6-1.1-2.6-2.5s1.2-2.5,2.6-2.5h13.6c1.4,0,2.6,1.1,2.6,2.5S35.2,43,33.8,43H20.2"/>
	<polyline class="st2" points="29.8,1 24.2,1 0,55.9 5.6,55.9 11.3,43 13.5,38 27,7.3 40.5,38 40.5,38 42.7,43 48.4,55.9 54,55.9 
		29.8,1 	"/>
	<g>
		<path class="st2" d="M167.7,56.9C152.4,57.5,139,45,138.4,29.6s11.7-28.9,27-29.5C180.6-0.5,194,12,194.6,27.3
			c0.2,3.8-0.5,7.6-1.9,11.2c-0.5,1.3-2,2-3.4,1.5c-1.3-0.5-2-2-1.5-3.4c1.1-3,1.7-6,1.5-9.2C188.9,15,178,4.8,165.6,5.3
			s-22.5,11.5-22,24.1s11.4,22.8,23.9,22.3c2.6-0.1,5.1-0.7,7.5-1.7c1.3-0.6,2.8,0.1,3.4,1.4c0.6,1.3-0.1,2.8-1.4,3.4
			C174,56,170.9,56.7,167.7,56.9"/>
	</g>
	<path class="st0" d="M174.4,39.8c-1-1-1.1-2.6-0.1-3.6s2.6-0.9,3.6,0.1l15.8,15.8c1,1,1.1,2.6,0.1,3.6s-2.6,0.9-3.6-0.1L174.4,39.8
		"/>
</g>
<g>
	<path class="st2" d="M242.2,5.1c0-2.3,1.8-4.1,3.9-4.1s4,1.7,4,4.1s-1.8,4.1-4,4.1C244,9.1,242.2,7.4,242.2,5.1z M249.2,5.3V4.8
		c0-1.7-1.4-2.9-3-2.9c-1.7,0-3,1.2-3,2.9v0.6c0,1.7,1.4,2.9,3,2.9C247.8,8.3,249.2,7.1,249.2,5.3z M245.7,7.1h-1.1V3h2
		c1.1,0,1.5,0.6,1.5,1.4c0,0.6-0.3,1.1-0.8,1.2l0.9,1.5h-1.4l-0.8-1.4h-0.6v1.4H245.7z M246.3,4.9c0.3,0,0.6-0.2,0.6-0.5V4.3
		c0-0.3-0.2-0.5-0.6-0.5h-0.6v1.1C245.7,4.9,246.3,4.9,246.3,4.9z"/>
</g>
</svg>
